<?xml version="1.0" encoding="UTF-8"?>
<!DOCTYPE svg PUBLIC "-//W3C//DTD SVG 1.1//EN" "http://www.w3.org/Graphics/SVG/1.1/DTD/svg11.dtd">
<!-- Creator: CorelDRAW X7 -->
<svg xmlns="http://www.w3.org/2000/svg" xml:space="preserve" width="245mm" height="45mm" version="1.1" style="shape-rendering:geometricPrecision; text-rendering:geometricPrecision; image-rendering:optimizeQuality; fill-rule:evenodd; clip-rule:evenodd"
viewBox="0 2050 5000 900"
 xmlns:xlink="http://www.w3.org/1999/xlink">
 <defs>
  <style type="text/css">
   <![CDATA[
    .fil0 {fill:#dcdcdc}
   ]]>
  </style>
 </defs>
 <g id="Ebene_x0020_1">
  <metadata id="CorelCorpID_0Corel-Layer"/>
  <g id="_2096255845296">
   <path class="fil0" d="M1949 2478c5,-7 11,-19 16,-22 3,14 36,180 36,188l-160 0 108 -166zm-699 -121c27,0 60,0 85,10 37,16 37,49 37,81 0,39 -21,77 -49,100 -31,25 -65,28 -121,28l48 -219zm152 241c3,-1 11,-3 16,-4l46 -18c58,-24 109,-70 109,-144 0,-35 -14,-60 -38,-79 -8,-5 -17,-12 -25,-15 -35,-16 -84,-25 -133,-25l-383 0c-6,0 -4,8 -8,19 -1,6 -4,14 -4,22 14,0 76,11 76,37 0,12 -24,114 -27,128 -14,62 -29,130 -43,192 -5,22 -10,44 -14,65 -5,25 -11,35 -32,46 -19,9 -41,11 -68,11 -2,3 -11,36 -11,41l358 0 11 -41c-20,0 -57,-5 -68,-14 -17,-16 -8,-35 -2,-62l31 -136 23 0c2,4 50,101 59,125l43 95c3,6 13,28 13,35l494 0c0,-7 8,-40 10,-43 -21,0 -73,-5 -81,-24 -8,-17 44,-97 59,-117l199 0 23 105c1,20 -2,23 -31,30 -15,3 -38,6 -57,6l-11 41 349 0c2,-5 11,-36 11,-41 -19,0 -54,-8 -66,-22 -15,-18 -18,-41 -24,-65 -5,-26 -11,-48 -16,-73l-79 -368 -105 0 -171 254c-7,9 -11,17 -18,25 -3,5 -4,8 -8,13 -3,4 -4,8 -9,12 -5,10 -10,18 -18,26l-60 89c-17,25 -44,66 -66,82 -24,19 -64,32 -99,21 -12,-5 -16,-10 -25,-18 -11,-11 -25,-35 -35,-49 -6,-8 -11,-17 -16,-27 -6,-8 -11,-17 -17,-25l-32 -54c-9,-19 -21,-37 -30,-56z"/>
   <path class="fil0" d="M100 2576l0 25 2 2c0,3 0,2 0,5l1 27c7,52 22,92 51,133 28,40 78,78 124,98 34,13 74,24 112,27l8 2 83 0 1 0 2 -2 39 -3c38,-6 84,-16 121,-27 13,-3 132,-41 139,-57l16 -82c7,-27 11,-53 19,-80 5,-23 13,-49 38,-60 16,-6 59,-16 83,-16 3,-12 6,-27 9,-39l-407 0c-2,14 -8,27 -8,39 22,0 81,14 98,33 16,20 -5,78 -11,110l-19 81c-1,8 -11,12 -17,16 -24,15 -59,36 -97,36 -25,0 -41,0 -60,-5 -132,-35 -126,-233 -108,-339 13,-78 32,-140 65,-200 51,-90 138,-165 252,-141 17,5 33,10 48,19 28,14 50,40 68,65 22,38 35,83 41,125 2,10 3,23 3,31l48 0 14 -69c5,-22 11,-44 16,-66l28 -138c-66,0 -38,-5 -85,27l-40 -18c-16,-4 -30,-9 -44,-12 -37,-10 -56,-13 -91,-16 -4,0 2,0 -3,0 -3,-2 -1,0 -3,-2l-86 0 -50 6c-61,10 -118,34 -168,62 -35,19 -54,37 -83,61 -55,50 -100,123 -124,193 -14,44 -19,76 -23,121l0 25c-2,3 0,2 -2,3z"/>
   <path class="fil0" d="M3847 2413c2,-11 3,-18 5,-29 1,-6 6,-19 6,-27 27,0 60,0 86,10 20,9 36,30 36,58 0,34 0,51 -16,81 -30,62 -84,70 -153,70l36 -163zm-257 -59c14,0 76,11 76,37 0,12 -9,50 -12,65l-72 320c-4,25 -11,35 -31,46 -19,9 -42,11 -69,11 -1,3 -11,36 -11,41l359 0 11 -41c-30,0 -86,-5 -78,-43 3,-11 5,-24 8,-33l30 -136 24 0c1,6 25,52 30,61 14,27 79,175 84,192l262 0c1,-5 11,-35 11,-41 -8,0 -40,-5 -46,-8 -14,-3 -24,-13 -32,-22 -27,-37 -97,-154 -124,-205 18,-8 67,-12 116,-52 30,-24 56,-60 56,-114 0,-98 -119,-119 -197,-119l-382 0c-6,0 -5,8 -8,19 -2,6 -5,14 -5,22z"/>
   <path class="fil0" d="M3034 2698c0,-87 14,-149 44,-225 11,-25 33,-62 54,-81 22,-24 52,-46 89,-46 25,0 46,0 68,13 52,30 54,95 54,151 0,77 -21,163 -46,214 -13,27 -21,38 -38,60 -5,8 -10,11 -14,17 -12,11 -23,21 -39,27 -34,19 -85,21 -120,0 -41,-24 -52,-82 -52,-130zm71 192c82,0 124,-1 200,-30 123,-48 236,-176 236,-314 0,-49 -2,-82 -27,-125 -30,-49 -82,-86 -138,-105 -98,-33 -219,-24 -311,16 -9,5 -17,8 -27,13 -28,14 -55,34 -81,55 -60,52 -111,135 -118,214 -2,24 -5,49 -2,73 3,21 8,43 17,60 12,26 29,51 50,69 27,22 31,28 73,46 31,15 82,28 128,28z"/>
   <path class="fil0" d="M4393 2698c0,-87 14,-149 44,-225 24,-54 78,-127 143,-127 25,0 46,0 68,13 52,30 54,95 54,151 0,96 -38,269 -137,318 -34,19 -85,21 -120,0 -5,-3 -13,-9 -18,-12 -25,-29 -34,-73 -34,-118zm507 -136l0 -60 -2 -8c-1,-4 -1,-4 -1,-8 -2,-7 -2,-11 -3,-18 -4,-9 -8,-20 -11,-28 -10,-19 -26,-43 -40,-59l-22 -17c-53,-42 -119,-67 -192,-67 -57,0 -89,0 -144,14 -59,16 -111,45 -157,81 -4,3 -7,5 -12,8 -12,11 -28,29 -39,40l-18 22c-47,65 -58,116 -65,193l4 37c4,30 14,62 31,87 3,3 7,6 10,10 8,12 19,22 28,31 42,38 116,65 170,69 116,7 224,-10 316,-78 15,-13 28,-24 42,-37 26,-25 51,-57 69,-90 23,-46 26,-71 34,-117l2 -4c0,0 0,-1 0,-1z"/>
   <path class="fil0" d="M2241 2354c20,0 50,14 62,25 8,7 14,18 17,27 3,13 5,26 8,37l60 293c5,26 10,49 16,73 2,14 5,26 6,38 2,5 4,13 5,18 2,6 0,16 7,16l103 0c4,0 22,-31 25,-34l168 -250c8,-13 14,-24 24,-35l60 -91c5,-6 10,-11 13,-17 20,-30 28,-41 54,-65 17,-16 62,-35 85,-35 3,-14 8,-27 11,-41l-256 0 -12 41c23,0 54,5 69,13 9,6 14,11 11,25 -5,14 -19,40 -27,54 -2,5 -5,8 -8,13 -3,6 -3,8 -7,14 -3,5 -6,8 -7,13l-40 62c-5,4 -110,161 -117,168 -4,-8 -16,-67 -19,-80 -8,-38 -46,-217 -46,-253 0,-15 44,-24 57,-26 36,-4 27,3 35,-27 1,-4 4,-11 4,-17l-353 0c0,14 -8,27 -8,41z"/>
  </g>
 </g>
</svg>
